<svg width="46" height="26" viewBox="0 0 46 26" fill="none" xmlns="http://www.w3.org/2000/svg">
<path d="M6.25001 25.5C4.5139 25.5 3.03751 24.8917 1.82084 23.675C0.604175 22.4583 -0.00276829 20.9833 9.49128e-06 19.25V15.0833H6.25001V19.25H12.5V0.500014H18.75V19.25C18.75 20.9861 18.1417 22.4625 16.925 23.6792C15.7083 24.8958 14.2333 25.5028 12.5 25.5H6.25001ZM29.1667 25.5C27.9861 25.5 26.9958 25.1 26.1958 24.3C25.3958 23.5 24.9972 22.5111 25 21.3333V17.1667H31.25V19.25H39.5833V15.0833H29.1667C27.9861 15.0833 26.9958 14.6833 26.1958 13.8833C25.3958 13.0833 24.9972 12.0945 25 10.9167V4.66668C25 3.48613 25.4 2.49585 26.2 1.69585C27 0.895846 27.9889 0.497237 29.1667 0.500014H41.6667C42.8472 0.500014 43.8375 0.900015 44.6375 1.70001C45.4375 2.50002 45.8361 3.4889 45.8333 4.66668V8.83335H39.5833V6.75001H31.25V10.9167H41.6667C42.8472 10.9167 43.8375 11.3167 44.6375 12.1167C45.4375 12.9167 45.8361 13.9056 45.8333 15.0833V21.3333C45.8333 22.5139 45.4333 23.5042 44.6333 24.3042C43.8333 25.1042 42.8445 25.5028 41.6667 25.5H29.1667Z" fill="white"/>
</svg>
