<svg width="100" height="100" viewBox="0 0 100 100" fill="none" xmlns="http://www.w3.org/2000/svg">
<path d="M0 1.96533V79.2237L50 98.0347L100 79.2237V1.96533H0ZM23.9441 32.6355C31.0799 32.7467 36.0445 36.3348 36.0901 43.4753H28.3508C28.3561 41.5696 27.5375 39.7553 25.824 39.032C23.8908 38.3405 21.4748 38.6831 20.2332 40.3198C18.9036 42.3074 19.1407 44.5322 19.1407 46.875C19.0674 49.9967 20.6653 52.6953 23.8342 52.7161C27.0449 52.5545 28.5705 50.9879 28.6011 48.0957H36.0901C35.9103 55.7649 30.7226 58.7398 23.9441 58.7708C15.383 58.8228 10.9215 52.7937 10.8521 45.6971C10.8017 37.1388 16.8522 32.7052 23.9441 32.6355ZM51.0254 32.6355C56.1653 32.5812 62.0428 34.8183 62.1888 40.4297V40.8569H54.5898V40.7165C54.5429 38.8738 52.8701 38.1602 51.3306 38.153C50.2147 38.1816 48.0127 38.4215 47.9798 39.8009C48.2607 41.9812 53.6763 42.3787 55.3589 42.7917C59.2676 43.6221 62.772 45.8383 62.8846 49.9572C62.7578 56.6251 57.3473 58.7491 51.764 58.7707C45.1307 58.7233 39.3439 57.1287 39.2945 49.7802H46.9605C46.889 52.4085 48.9406 52.9613 51.0254 52.9662C52.2746 52.966 54.5713 52.9209 54.5898 51.2816C54.3374 49.2608 48.7383 48.736 47.1374 48.3275C43.0029 47.291 39.7324 45.1382 39.7033 40.7164C39.9892 34.2827 45.764 32.6553 51.0254 32.6355ZM77.5391 32.6355C83.0472 32.6817 88.6963 34.7657 88.6963 40.8569H81.1036C81.1712 38.94 79.4058 38.1603 77.8443 38.1531C76.7285 38.1817 74.5264 38.4216 74.4935 39.801C74.7322 41.9537 80.2105 42.3837 81.8727 42.7917C84.5949 43.449 87.3744 44.5514 88.6964 47.0032C89.1383 47.8033 89.3683 48.787 89.3923 49.9573C89.2703 56.6269 83.857 58.7492 78.2717 58.7708C71.6422 58.725 65.8525 57.1248 65.8022 49.7803H73.4682C73.4268 51.4591 74.3235 52.5918 75.8547 52.8564C77.2402 52.9866 81.078 53.4488 81.1037 51.2817C80.8019 49.2285 75.279 48.7431 73.6513 48.3277C69.5127 47.2905 66.2463 45.1426 66.2172 40.7166C66.5039 34.2784 72.2711 32.6554 77.5391 32.6355Z" fill="#EAEAEA"/>
</svg>
