<svg width="100" height="100" viewBox="0 0 100 100" fill="none" xmlns="http://www.w3.org/2000/svg">
<path d="M0 62.5V37.5H6.25V45.8333H14.5833V37.5H20.8333V62.5H14.5833V52.0833H6.25V62.5H0ZM32.2917 62.5V43.75H25V37.5H45.8333V43.75H38.5417V62.5H32.2917ZM50 62.5V41.6667C50 40.4861 50.4 39.4958 51.2 38.6958C52 37.8958 52.9889 37.4972 54.1667 37.5H72.9167C74.0972 37.5 75.0875 37.9 75.8875 38.7C76.6875 39.5 77.0861 40.4889 77.0833 41.6667V62.5H70.8333V43.75H66.6667V58.3333H60.4167V43.75H56.25V62.5H50ZM83.3333 62.5V37.5H89.5833V56.25H100V62.5H83.3333Z" fill="white"/>
</svg>
